<svg xmlns="http://www.w3.org/2000/svg" viewBox="0 0 56.97 67.37"><path fill="#d0e5c9" d="m15.72 30.5-2.14 4.28c-.12.23-.18.49-.18.75v1.68h8.38a1.675 1.675 0 0 1 .05 3.35H13.4v3.35h8.38c.93.01 1.67.77 1.65 1.7-.01.91-.75 1.64-1.65 1.65H13.4v3.35h8.38a1.675 1.675 0 0 1 .05 3.35H13.4v3.35h8.38a1.675 1.675 0 0 1 .05 3.35H13.4v1.68c0 2.78 2.25 5.02 5.03 5.03h20.11c2.77 0 5.02-2.25 5.03-5.03V35.53c0-.26-.06-.51-.18-.75l-2.14-4.28H15.72ZM40.21 20.45H16.75a3.35 3.35 0 0 0-3.35 3.35v1.68c0 .93.75 1.68 1.67 1.68h26.81c.93 0 1.68-.75 1.68-1.67v-1.68c0-1.85-1.5-3.35-3.35-3.35ZM0 45.58c.01 5.82 4.3 10.74 10.06 11.56v-3.35c-4.53-.92-7.46-5.35-6.54-9.88a8.39 8.39 0 0 1 6.54-6.54v-1.84c.01-.52.1-1.04.27-1.53C4.45 34.69.02 39.66 0 45.58ZM46.65 33.99c.17.49.26 1.01.27 1.53v1.84c4.53.93 7.46 5.35 6.53 9.89a8.367 8.367 0 0 1-6.53 6.53v3.35c6.38-.89 10.83-6.79 9.94-13.17-.74-5.26-4.93-9.36-10.21-9.98ZM28.49 0a3.35 3.35 0 0 0-3.35 3.35v6.97c-4.01 0-7.45 2.84-8.22 6.77h23.14a8.376 8.376 0 0 0-8.22-6.77V3.35c0-1.85-1.5-3.35-3.35-3.35Z"/></svg>
