<svg xmlns="http://www.w3.org/2000/svg" width="143.198" height="173.905" viewBox="0 0 143.198 173.905">
  <g id="Gruppe_98" data-name="Gruppe 98" transform="translate(-15.345 86.953) rotate(-45)" opacity="0.5">
    <g id="Gruppe_89" data-name="Gruppe 89" transform="translate(0 29.074)">
      <g id="Gruppe_88" data-name="Gruppe 88" transform="translate(0)">
        <path id="Pfad_67" data-name="Pfad 67" d="M55.082,121.052,45.328,124.3a3.6,3.6,0,0,0-1.408.871l-2.548,2.547,12.737,12.737a3.6,3.6,0,0,1-5.095,5.1L36.277,132.817l-5.095,5.095L43.92,150.649a3.6,3.6,0,0,1-5.095,5.095L26.088,143.006l-5.1,5.095L33.73,160.838a3.6,3.6,0,1,1-5.095,5.1L15.9,153.2l-5.095,5.1L23.54,171.028a3.6,3.6,0,0,1-5.095,5.095L5.708,163.386l-2.548,2.548a10.819,10.819,0,0,0,0,15.284L33.73,211.787a10.821,10.821,0,0,0,15.285,0l40.759-40.759a3.606,3.606,0,0,0,.871-1.408l3.251-9.754Z" transform="translate(0 -121.052)" fill="#9fd18d"/>
      </g>
    </g>
    <g id="Gruppe_91" data-name="Gruppe 91" transform="translate(58.149 13.254)">
      <g id="Gruppe_90" data-name="Gruppe 90">
        <path id="Pfad_68" data-name="Pfad 68" d="M291.569,92.957,255.905,57.293a7.206,7.206,0,0,0-10.19,0l-2.547,2.548a3.6,3.6,0,0,0,0,5.095l40.759,40.759a3.6,3.6,0,0,0,5.095,0l2.547-2.548A7.2,7.2,0,0,0,291.569,92.957Z" transform="translate(-242.113 -55.183)" fill="#9fd18d"/>
      </g>
    </g>
    <g id="Gruppe_93" data-name="Gruppe 93" transform="translate(0.923 20.777)">
      <g id="Gruppe_92" data-name="Gruppe 92">
        <path id="Pfad_69" data-name="Pfad 69" d="M11.177,93.832a25.146,25.146,0,0,0-2.29,32.86l5.1-5.1A18.013,18.013,0,0,1,38.942,96.637l2.805-2.805a10.793,10.793,0,0,1,2.745-1.919A25.136,25.136,0,0,0,11.177,93.832Z" transform="translate(-3.845 -86.508)" fill="#9fd18d"/>
      </g>
    </g>
    <g id="Gruppe_95" data-name="Gruppe 95" transform="translate(62.009 81.4)">
      <g id="Gruppe_94" data-name="Gruppe 94">
        <path id="Pfad_70" data-name="Pfad 70" d="M292.961,338.918a10.786,10.786,0,0,1-1.918,2.745l-2.8,2.8a18.015,18.015,0,0,1-24.962,24.962l-5.093,5.094a25.088,25.088,0,0,0,34.777-35.6Z" transform="translate(-258.184 -338.918)" fill="#9fd18d"/>
      </g>
    </g>
    <g id="Gruppe_97" data-name="Gruppe 97" transform="translate(77.281 0)">
      <g id="Gruppe_96" data-name="Gruppe 96" transform="translate(0 0)">
        <path id="Pfad_71" data-name="Pfad 71" d="M365.349,2.111a7.205,7.205,0,0,0-10.19,0l-10.6,10.595a18,18,0,0,0-22.793-2.19l35.173,35.173a18,18,0,0,0-2.19-22.793l10.6-10.6A7.205,7.205,0,0,0,365.349,2.111Z" transform="translate(-321.771 0)" fill="#9fd18d"/>
      </g>
    </g>
  </g>
</svg>
