<svg xmlns="http://www.w3.org/2000/svg" viewBox="0 0 69.2 72.68"><path fill="#d0e5c9" d="m31.17 21.26 4.17-1.58-4.31-4.88.14 6.46Z"/><path fill="#d0e5c9" d="M52.14 26 42.52 1.58a2.674 2.674 0 0 0-3.3-1.44L14.79 9.77a2.535 2.535 0 0 0-1.44 3.29v.01l9.77 24.42a2.535 2.535 0 0 0 3.29 1.44h.01l24.28-9.62a2.535 2.535 0 0 0 1.44-3.29v-.01Zm-10.63-2.73c-.16.31-.41.56-.72.72a.83.83 0 0 1-.57.14c-.29 0-.43 0-.57-.14s-.43-.29-.57-.43l-.57-.58-1.29-1.44-5.74 2.15v2.01c.02.58-.02 1.16-.14 1.72-.16.31-.41.56-.72.72-.37.14-.78.14-1.15 0-.31-.16-.56-.41-.72-.72-.14-.14-.14-.29-.14-.58-.14-.29-.14-.58-.29-.86V14.35c-.02-.39.03-.78.14-1.15l.43-.86c.58-.45 1.28-.7 2.01-.72a2 2 0 0 1 .86.29c.3.11.55.31.72.57l.86.86 7.18 7.61c.41.37.75.8 1.01 1.29.14.32.14.69 0 1.01ZM18.39 57.75c-.75-.41-1.59-.61-2.44-.58h-3.16v4.31h3.3c2.01 0 3.02-.72 3.02-2.15.11-.62-.17-1.25-.71-1.58ZM17.24 54.87c.45-.12.82-.44 1.01-.86.16-.31.26-.65.29-1.01.01-.6-.32-1.16-.86-1.44-.78-.29-1.61-.44-2.44-.43H12.8v4.02h2.73a7.2 7.2 0 0 0 1.72-.29Z"/><path fill="#d0e5c9" d="M28.73 41.37H2.59A2.565 2.565 0 0 0 0 43.93v26.16c0 1.42 1.14 2.58 2.56 2.59h26.16c1.42 0 2.58-1.14 2.59-2.56V43.95c0-1.42-1.14-2.58-2.56-2.59h-.03Zm-7.18 20.4c-.43.63-1.03 1.12-1.72 1.44-.48.28-1.03.42-1.58.43-.72 0-1.29.14-2.01.14h-4.6c-.58.14-1.01 0-1.44-.72-.29-.42-.44-.92-.43-1.44v-11.2c-.01-.52.14-1.02.43-1.44.42-.29.92-.44 1.44-.43h5.03c.63-.02 1.25.02 1.87.14.51.1 1 .3 1.44.57l.86.86c.25.35.44.74.58 1.15.12.42.17.86.14 1.29 0 1.47-.92 2.78-2.3 3.3 1.76.27 3.06 1.81 3.02 3.59-.02.82-.27 1.62-.72 2.3ZM67.37 41.23l-25.28-6.75c-1.39-.34-2.79.49-3.16 1.87l-6.75 25.28c-.36 1.38.45 2.79 1.83 3.15h.04l25.28 6.75c1.38.36 2.79-.45 3.15-1.83v-.04l6.61-25.28a2.53 2.53 0 0 0-1.72-3.15Zm-9.34 9.91c-.06.32-.27.59-.57.72-.3.19-.66.24-1.01.14-.3 0-.58-.16-.72-.43-.21-.36-.35-.74-.43-1.15-.14-.73-.43-1.41-.86-2.01-.46-.5-1.06-.85-1.72-1.01-1.12-.4-2.38-.18-3.3.57a6.617 6.617 0 0 0-2.15 3.74c-.32.92-.41 1.91-.29 2.87.07.74.37 1.45.86 2.01.55.43 1.19.72 1.87.86 1.55.52 3.26-.07 4.17-1.44.14-.43.43-.57.72-.86.3-.19.67-.24 1.01-.14.32.06.59.27.72.57.19.3.24.67.14 1.01-.15.52-.39 1-.72 1.44-.37.54-.86.98-1.44 1.29-.65.43-1.38.73-2.15.86-.92.05-1.84-.05-2.73-.29-.7-.15-1.37-.39-2.01-.72-.58-.3-1.12-.69-1.58-1.15-.51-.43-.9-.97-1.15-1.58-.21-.56-.36-1.13-.43-1.72a9.03 9.03 0 0 1-.14-2.01c.02-.73.12-1.45.29-2.15a9.61 9.61 0 0 1 1.29-3.02c.57-.81 1.31-1.5 2.15-2.01.81-.44 1.68-.73 2.59-.86.97-.05 1.93.05 2.87.29 1.05.27 2.03.76 2.87 1.44.8.66 1.35 1.57 1.58 2.59.37.65.47 1.43.28 2.15Z"/></svg>
