<svg xmlns="http://www.w3.org/2000/svg" width="161.324" height="169.429" viewBox="0 0 161.324 169.429">
  <g id="Gruppe_107" data-name="Gruppe 107" transform="translate(-9.682)" opacity="0.5">
    <g id="Gruppe_105" data-name="Gruppe 105" transform="translate(40.356 0)">
      <path id="Pfad_72" data-name="Pfad 72" d="M182.817,97.456l9.711-3.683L182.482,82.388Z" transform="translate(-140.829 -47.904)" fill="#9fd18d"/>
      <path id="Pfad_73" data-name="Pfad 73" d="M173.843,60.6,151.408,3.678a6.217,6.217,0,0,0-7.7-3.348L86.782,22.765a5.918,5.918,0,0,0-3.348,7.7L106.2,87.391a5.918,5.918,0,0,0,7.7,3.348L170.494,68.3A5.918,5.918,0,0,0,173.843,60.6Zm-24.779-6.362a4.035,4.035,0,0,1-1.674,1.674,2.013,2.013,0,0,1-1.339.335c-.67,0-1,0-1.339-.335s-1-.67-1.339-1l-1.339-1.339-3.014-3.348-13.394,5.023v4.688a16.3,16.3,0,0,1-.335,4.018,4.035,4.035,0,0,1-1.674,1.674,3.668,3.668,0,0,1-2.679,0,4.035,4.035,0,0,1-1.674-1.674c-.335-.335-.335-.67-.335-1.339-.335-.67-.335-1.339-.67-2.009V33.48a7.373,7.373,0,0,1,.335-2.679l1-2.009a8,8,0,0,1,4.688-1.674,4.759,4.759,0,0,1,2.009.67,3.343,3.343,0,0,1,1.674,1.339l2.009,2.009L146.72,48.883a10.427,10.427,0,0,1,2.344,3.014A2.86,2.86,0,0,1,149.064,54.241Z" transform="translate(-82.967 0)" fill="#9fd18d"/>
    </g>
    <g id="Gruppe_106" data-name="Gruppe 106" transform="translate(9.682 96.432)">
      <path id="Pfad_74" data-name="Pfad 74" d="M93.941,319.727a11.006,11.006,0,0,0-5.692-1.339H80.882v10.045h7.7q7.032,0,7.032-5.023A3.579,3.579,0,0,0,93.941,319.727Z" transform="translate(-51.08 -281.555)" fill="#9fd18d"/>
      <path id="Pfad_75" data-name="Pfad 75" d="M91.262,293.494a3.54,3.54,0,0,0,2.344-2.009,6.208,6.208,0,0,0,.67-2.344,3.683,3.683,0,0,0-2.009-3.349,15.642,15.642,0,0,0-5.692-1H80.882v9.376h6.362A16.808,16.808,0,0,0,91.262,293.494Z" transform="translate(-51.08 -262.018)" fill="#9fd18d"/>
      <path id="Pfad_76" data-name="Pfad 76" d="M76.652,230.388H15.709a6,6,0,0,0-6.027,6.027v60.943a6,6,0,0,0,6.027,6.027H76.652a6,6,0,0,0,6.027-6.027V236.415A6,6,0,0,0,76.652,230.388ZM59.909,277.937a9.844,9.844,0,0,1-4.018,3.348,7.632,7.632,0,0,1-3.683,1c-1.674,0-3.014.335-4.688.335H36.8c-1.339.335-2.344,0-3.348-1.674a5.657,5.657,0,0,1-1-3.348V251.483a5.657,5.657,0,0,1,1-3.348,5.657,5.657,0,0,1,3.348-1h11.72a19.094,19.094,0,0,1,4.353.335,10.028,10.028,0,0,1,3.348,1.339l2.009,2.009a10.026,10.026,0,0,1,1.339,2.679,9.27,9.27,0,0,1,.335,3.014,8.258,8.258,0,0,1-5.358,7.7,8.289,8.289,0,0,1,7.032,8.371A10.119,10.119,0,0,1,59.909,277.937Z" transform="translate(-9.682 -230.388)" fill="#9fd18d"/>
    </g>
    <path id="Pfad_77" data-name="Pfad 77" d="M270.56,207.524l-58.933-15.738a6.119,6.119,0,0,0-7.367,4.353l-15.738,58.933c-1,3.014,1,6.362,4.353,7.367l58.933,15.738c3.014,1,6.362-1,7.367-4.353l15.4-58.933A5.919,5.919,0,0,0,270.56,207.524Zm-21.765,23.1a2.225,2.225,0,0,1-1.339,1.674,2.941,2.941,0,0,1-2.344.335,1.841,1.841,0,0,1-1.674-1,8.752,8.752,0,0,1-1-2.679,11.74,11.74,0,0,0-2.009-4.688,8.036,8.036,0,0,0-4.018-2.344,7.91,7.91,0,0,0-7.7,1.339,15.437,15.437,0,0,0-5.023,8.706,14.8,14.8,0,0,0-.67,6.7,8.414,8.414,0,0,0,2.009,4.688,10.378,10.378,0,0,0,4.353,2.009,8.423,8.423,0,0,0,9.711-3.348c.335-1,1-1.339,1.674-2.009a2.941,2.941,0,0,1,2.344-.335,2.225,2.225,0,0,1,1.674,1.339,2.941,2.941,0,0,1,.335,2.344,10.474,10.474,0,0,1-1.674,3.348,9.5,9.5,0,0,1-3.348,3.014,13.212,13.212,0,0,1-5.023,2.009,20.607,20.607,0,0,1-6.362-.67,19.364,19.364,0,0,1-4.688-1.674,14.867,14.867,0,0,1-3.683-2.679,9.5,9.5,0,0,1-2.679-3.683,17.661,17.661,0,0,1-1-4.018,22.107,22.107,0,0,1-.335-4.688,25.848,25.848,0,0,1,.67-5.023A22.325,22.325,0,0,1,220,222.257a16.8,16.8,0,0,1,5.023-4.688,18.288,18.288,0,0,1,6.027-2.009,22.783,22.783,0,0,1,6.7.67,18.02,18.02,0,0,1,6.7,3.348,10.94,10.94,0,0,1,3.683,6.027A6.691,6.691,0,0,1,248.794,230.628Z" transform="translate(-103.833 -111.427)" fill="#9fd18d"/>
  </g>
</svg>
