<?xml version="1.0" encoding="UTF-8"?>
<svg xmlns="http://www.w3.org/2000/svg" viewBox="0 0 54.01 54.01">
  <path fill="#a0cd8d" d="M27.01,0C12.1,0,.01,12.09.01,27s12.09,27,27,27,27-12.09,27-27S41.93,0,27.01,0ZM33.77,15.33c.95,0,1.72.91,1.72,2.03s-.77,2.03-1.72,2.03-1.72-.91-1.72-2.03.77-2.03,1.72-2.03ZM30.09,12.65c1.14,0,2.06,1.09,2.06,2.44s-.92,2.44-2.06,2.44-2.06-1.09-2.06-2.44.92-2.44,2.06-2.44ZM24.18,10.18c1.92.04,3.47,1.59,3.49,3.52.03,1.97-1.55,3.58-3.52,3.61-.04,0-.08,0-.11,0-1.91-.08-3.4-1.7-3.32-3.61,0-1.92,1.54-3.48,3.46-3.51ZM35.58,31.08c-1.1,4.35-3.4,8.31-6.64,11.41-2.1,2-5.02,2.87-7.87,2.35-2.5-.41-4.03-2.52-4.03-5.51-.09-1.92.87-3.75,2.51-4.76.38-.26.77-.52,1.14-.79,2.14-1.61,2.44-3.56,1.04-5.85-.68-1-1.19-2.1-1.52-3.26-1.1-4.9,1.87-7.34,6.12-7.14,5.13.24,8.17,3.42,9.49,7.91.46,1.87.38,3.83-.24,5.64ZM34.7,20.37c0-.95.66-1.73,1.46-1.73s1.46.77,1.46,1.73-.66,1.73-1.46,1.73-1.46-.77-1.46-1.73ZM37.52,25.17c-.72,0-1.3-.69-1.3-1.54s.58-1.54,1.3-1.54,1.3.69,1.3,1.54-.58,1.54-1.3,1.54Z"/>
</svg>
