<svg xmlns="http://www.w3.org/2000/svg" viewBox="0 0 96.61 76.52"><path fill="#cee5b2" d="M87.29 47.09c-.6-.28-1.64 4.05-5.54 1.97-3.89-2.09-.44-5.94-.12-11.31s-3.37-9.19-7.7-9.75c-2.83-.37-4.85.69-5.92 1.46.95.87 1.92 2.04 2.39 3.49 5.23-1.63 4.9 6.01 4.05 7.96-1.07 2.41-2.33 10.08 4.98 12.21 7.3 2.13 8.47-5.74 7.86-6.02ZM3.58 53.11C1.6 53.11 0 54.71 0 56.69s1.6 3.58 3.58 3.58 3.58-1.6 3.58-3.58-1.6-3.58-3.58-3.58Zm1.74 3.39-.76 1.89c-.07.17-.25.25-.42.2l-1.94-.64c-.33-.1-.6-.34-.74-.65l-.02-.05a1.19 1.19 0 0 1-.07-.81c.07-.27.24-.5.47-.66.16-.1.33-.17.52-.2s.38 0 .56.06l.13.05.04-.13a1.184 1.184 0 0 1 1.61-.66c.25.11.46.32.58.57l.02.05c.15.31.15.67.02.98ZM93.02 53.11c-1.98 0-3.58 1.6-3.58 3.58s1.6 3.58 3.58 3.58 3.58-1.6 3.58-3.58-1.6-3.58-3.58-3.58Zm2.14 4.15-.02.05c-.14.31-.41.55-.74.65l-1.94.64a.335.335 0 0 1-.42-.2l-.76-1.89c-.13-.32-.12-.67.02-.98l.02-.05c.12-.25.32-.46.58-.57.25-.12.54-.14.81-.07.18.05.35.15.49.27.14.13.25.29.31.46l.04.13.13-.05c.18-.07.37-.09.56-.06.19.03.36.09.52.2.23.16.39.39.47.66.08.27.05.55-.07.81ZM59.97 33.16c.48-2.72 1.22-4.56 1.74-5.6-2.07-.32-4.65-.35-6.4-.52-2.49-.24-4.66-1.15-5.66-1.56-.74-.31-1.55-.46-2.18-.54-.02.15-.05.32-.07.5-.2 1.38-.47 3.26-1.33 4.78-.36.63-.89 1.31-1.45 2.02-1.13 1.45-2.42 3.09-2.02 4.19.53 1.48 4.3 2.43 6.8 3.06.38.1.74.19 1.08.28.69.18 1.48.44 2.31.71 2.33.76 5.22 1.71 6.53 1.09.92-.44.77-2.51.64-4.51-.09-1.35-.19-2.75.01-3.89Zm-2.4.16-.03.11c-.2.74-.7 1.37-1.38 1.72l-4.03 2.16c-.35.19-.79.07-1-.27l-2.41-3.89c-.42-.65-.54-1.44-.34-2.18l.03-.11c.16-.61.53-1.13 1.05-1.48a2.67 2.67 0 0 1 1.76-.47c.42.05.83.19 1.19.42.36.23.66.54.87.9l.14.27.27-.16c.37-.21.78-.33 1.21-.35.42-.01.84.06 1.22.23.57.26 1.02.72 1.29 1.29.27.56.33 1.21.17 1.81Z"/><g fill="#cee5b2"><path d="M72.44 57.48c-2.61-3.41-6.18-3.81-6.18-7.3s2.29-5.58 3.17-8.79c.69-2.51.59-5.44.06-7.41-.54-2.01-2.03-3.6-3.22-4.49-.54-.39-1.31-.89-2.29-1.34-.32-.15-.7-.27-1.11-.37-.47.88-1.28 2.71-1.78 5.57-.18 1.01-.09 2.33 0 3.62.17 2.49.33 4.84-1.28 5.61-.45.22-1 .31-1.61.31-1.68 0-3.82-.7-5.77-1.34-.53-.17-1.03-.34-1.5-.48l-.8 2.46c1.57.68 2.68 2.25 2.68 4.07 0 .24-.02.47-.06.7l.8.24c.3.09.47.41.38.71-.07.25-.3.41-.54.41-.05 0-.11 0-.16-.02L43.2 46.67a.571.571 0 0 1-.38-.71c.09-.3.41-.47.71-.38l.8.24c.7-1.58 2.29-2.65 4.05-2.65.23 0 .45.02.67.06l.8-2.46c-.23-.06-.46-.12-.71-.18-3.05-.77-6.85-1.73-7.59-3.78-.61-1.7.88-3.6 2.19-5.28.53-.68 1.03-1.32 1.35-1.88.76-1.34.97-3.1 1.19-4.39.23-1.37.68-2.27.61-3.65-.08-1.54-1.52-3.85-1.77-5.7-.24-1.85 1.12-4.57-1.04-7.46-2.17-2.89-4.17-2.17-6.02-3.13C36.21 4.36 35.21.54 32.04.1c-4.05-.56-5.26 1.2-6.58 1.68s-1.97-.52-3.49.28c-1.52.8-1.48 2.25-2.61 2.29-1.12.04-2.97-.84-4.17-1.2-1.32-.4-4.09-.12-4.09 1.52 0 2.05 4.09 3.09 4.21 3.93.12.84-1.32.91-1.52 1.56-.32 1.04 1.04 1.97 1.77 3.69.72 1.73.52 4.97-.08 6.86-.6 1.89-3.21 2.97-2.61 4.81.6 1.85 2.33 1.36 3.53 2.05 1.2.68 1.24 1.77 3.05 1.77 2.19 0 2.01-2.61 2.93-4.01.86-1.31 2.24-1.89 2.43-1.96 1.03-1.16 2.83-3.51 3.07-5.98.25-2.56-.56-4.36-.99-5.13a.56.56 0 0 1 .15-.72c.27-.21.67-.14.84.17.52.91 1.4 2.93 1.13 5.8-.28 2.93-2.4 5.59-3.49 6.79 3.2 4.77-.21 8-.21 12.07 0 4.33 2.17 5.34 2.17 9.59s-4.61 4.41-7.86 6.98c-2.93 2.32-3.79 6.55-4.04 8.71.72.37 1.49.74 2.31 1.11.91.41 1.92.84 3.01 1.26 2.22-8.82 8.79-7.57 12.04-8.83 3.41-1.32 5.14-3.37 5.14-3.37s4.97 1.2 9.5 1.4c4.53.2 7.43-.12 7.43-.12 5.1 6.62 8.02 5.42 11.27 7.54 2.06 1.35 2.97 3.77 3.37 5.37 2.08-.59 3.98-1.23 5.71-1.9-.42-1.77-1.28-4.51-2.9-6.64ZM21.32 18.07c-.35.1-.69-.16-.69-.52v-.06c0-.25.17-.44.41-.52a1.295 1.295 0 0 0 0-2.46c-.24-.08-.41-.28-.41-.52v-.06c0-.36.35-.62.69-.52 1.01.3 1.74 1.23 1.74 2.33s-.74 2.03-1.74 2.33Z"/><path d="m45.41 46.14 6.23 1.85c.01-.12.03-.25.03-.38 0-1.82-1.48-3.3-3.3-3.3-1.26 0-2.41.73-2.96 1.84Z"/></g><path fill="#cee5b2" d="M88.57 58.24C85.19 60.9 71.92 70 48.28 70S11.53 61.03 8.02 58.3a4.74 4.74 0 0 1-2.85 2.84C9 64.48 24.48 76.53 48.28 76.53s38.91-12.28 42.58-15.64a4.716 4.716 0 0 1-2.29-2.65ZM11 62.04c0 .17-.07.34-.2.46l-.75.71s-.07.05-.12.05-.09-.02-.12-.05l-.75-.71a.613.613 0 0 1-.2-.46v-.03c0-.14.05-.28.14-.38.09-.11.22-.18.35-.2.09-.01.19 0 .28.02.09.03.18.08.24.15l.05.05.05-.05c.07-.07.15-.12.24-.15s.19-.03.28-.02a.592.592 0 0 1 .49.58v.03Zm3 1.9c0 .17-.07.34-.2.46l-.75.71s-.07.05-.12.05-.09-.02-.12-.05l-.75-.71a.613.613 0 0 1-.2-.46v-.03c0-.14.05-.28.14-.38.09-.11.22-.18.35-.2.09-.01.19 0 .28.02.09.03.18.08.24.15l.05.05.05-.05c.07-.07.15-.12.24-.15s.19-.03.28-.02a.592.592 0 0 1 .49.58v.03Zm3.29 1.8c0 .17-.07.34-.2.46l-.75.71s-.07.05-.12.05-.09-.02-.12-.05l-.75-.71a.613.613 0 0 1-.2-.46v-.02c0-.14.05-.28.14-.38.09-.11.22-.18.35-.2.09-.01.19 0 .28.02.09.03.18.08.24.15l.05.05.05-.05c.07-.07.15-.12.24-.15s.19-.03.28-.02a.592.592 0 0 1 .49.58v.02Zm3.33 1.55c0 .17-.07.34-.2.46l-.75.71s-.07.05-.12.05-.09-.02-.12-.05l-.75-.71a.613.613 0 0 1-.2-.46v-.02c0-.14.05-.28.14-.38.09-.11.22-.18.35-.2.09-.01.19 0 .28.02.09.03.18.08.24.15l.05.05.05-.05c.07-.07.15-.12.24-.15s.19-.03.28-.02a.592.592 0 0 1 .49.58v.02Zm3.44 1.49c0 .17-.07.34-.2.46l-.75.71s-.07.05-.12.05-.09-.02-.12-.05l-.75-.71a.613.613 0 0 1-.2-.46v-.02c0-.14.05-.28.14-.38.09-.11.22-.18.35-.2.09-.01.19 0 .28.02.09.03.18.08.24.15l.05.05.05-.05c.07-.07.15-.12.24-.15s.19-.03.28-.02a.592.592 0 0 1 .49.58v.02Zm3.63 1.1c0 .17-.07.34-.2.46l-.75.71s-.07.05-.12.05-.09-.02-.12-.05l-.75-.71a.613.613 0 0 1-.2-.46v-.03c0-.14.05-.28.14-.38.09-.11.22-.18.35-.2.09-.01.19 0 .28.02.09.03.18.08.24.15l.05.05.05-.05c.07-.07.15-.12.24-.15s.19-.03.28-.02a.592.592 0 0 1 .49.58v.03Zm3.59 1.01c0 .17-.07.34-.2.46l-.75.71s-.07.05-.12.05-.09-.02-.12-.05l-.75-.71a.613.613 0 0 1-.2-.46v-.02c0-.14.05-.28.14-.38.09-.11.22-.18.35-.2.09-.01.19 0 .28.02.09.03.18.08.24.15l.05.05.05-.05c.07-.07.15-.12.24-.15s.19-.03.28-.02a.592.592 0 0 1 .49.58v.02Zm3.64.84c0 .17-.07.34-.2.46l-.75.71s-.07.05-.12.05-.09-.02-.12-.05l-.75-.71a.613.613 0 0 1-.2-.46v-.03c0-.14.05-.28.14-.38.09-.11.22-.18.35-.2.09-.01.19 0 .28.02.09.03.18.08.24.15l.05.05.05-.05c.07-.07.15-.12.24-.15s.19-.03.28-.02a.592.592 0 0 1 .49.58v.03Zm3.61.67c0 .17-.07.34-.2.46l-.75.71s-.07.05-.12.05-.09-.02-.12-.05l-.75-.71a.613.613 0 0 1-.2-.46v-.02c0-.14.05-.28.14-.38.09-.11.22-.18.35-.2.09-.01.19 0 .28.02.09.03.18.08.24.15l.05.05.05-.05c.07-.07.15-.12.24-.15s.19-.03.28-.02a.592.592 0 0 1 .49.58v.02Zm3.65.48c0 .17-.07.34-.2.46l-.75.71s-.07.05-.12.05-.09-.02-.12-.05l-.75-.71a.613.613 0 0 1-.2-.46v-.03c0-.14.05-.28.14-.38.09-.11.22-.18.35-.2.09-.01.19 0 .28.02.09.03.18.08.24.15l.05.05.05-.05c.07-.07.15-.12.24-.15s.19-.03.28-.02a.592.592 0 0 1 .49.58v.03Zm3.68.28c0 .17-.07.34-.2.46l-.75.71s-.07.05-.12.05-.09-.02-.12-.05l-.75-.71a.613.613 0 0 1-.2-.46v-.03c0-.14.05-.28.14-.38.09-.11.22-.18.35-.2.09-.01.19 0 .28.02.09.03.18.08.24.15l.05.05.05-.05c.07-.07.15-.12.24-.15s.19-.03.28-.02a.592.592 0 0 1 .49.58v.03Zm3.69 0c0 .17-.07.34-.2.46l-.75.71s-.07.05-.12.05-.09-.02-.12-.05l-.75-.71a.613.613 0 0 1-.2-.46v-.03c0-.14.05-.28.14-.38.09-.11.22-.18.35-.2.09-.01.19 0 .28.02.09.03.18.08.24.15l.05.05.05-.05c.07-.07.15-.12.24-.15s.19-.03.28-.02a.592.592 0 0 1 .49.58v.03Zm3.73 0c0 .17-.07.34-.2.46l-.75.71s-.07.05-.12.05-.09-.02-.12-.05l-.75-.71a.613.613 0 0 1-.2-.46v-.03c0-.14.05-.28.14-.38.09-.11.22-.18.35-.2.09-.01.19 0 .28.02.09.03.18.08.24.15l.05.05.05-.05c.07-.07.15-.12.24-.15s.19-.03.28-.02a.592.592 0 0 1 .49.58v.03ZM57 72.8c0 .17-.07.34-.2.46l-.75.71s-.07.05-.12.05-.09-.02-.12-.05l-.75-.71a.613.613 0 0 1-.2-.46v-.03c0-.14.05-.28.14-.38.09-.11.22-.18.35-.2.09-.01.19 0 .28.02.09.03.18.08.24.15l.05.05.05-.05c.07-.07.15-.12.24-.15s.19-.03.28-.02a.592.592 0 0 1 .49.58v.03Zm3.69-.48c0 .17-.07.34-.2.46l-.75.71s-.07.05-.12.05-.09-.02-.12-.05l-.75-.71a.613.613 0 0 1-.2-.46v-.02c0-.14.05-.28.14-.38.09-.11.22-.18.35-.2.09-.01.19 0 .28.02.09.03.18.08.24.15l.05.05.05-.05c.07-.07.15-.12.24-.15s.19-.03.28-.02a.592.592 0 0 1 .49.58v.02Zm3.61-.71c0 .17-.07.34-.2.46l-.75.71s-.07.05-.12.05-.09-.02-.12-.05l-.75-.71a.613.613 0 0 1-.2-.46v-.02c0-.14.05-.28.14-.38.09-.11.22-.18.35-.2.09-.01.19 0 .28.02.09.03.18.08.24.15l.05.05.05-.05c.07-.07.15-.12.24-.15s.19-.03.28-.02a.592.592 0 0 1 .49.58v.02Zm3.64-.8c0 .17-.07.34-.2.46l-.75.71s-.07.05-.12.05-.09-.02-.12-.05l-.75-.71a.613.613 0 0 1-.2-.46v-.02c0-.14.05-.28.14-.38.09-.11.22-.18.35-.2.09-.01.19 0 .28.02.09.03.18.08.24.15l.05.05.05-.05c.07-.07.15-.12.24-.15s.19-.03.28-.02a.592.592 0 0 1 .49.58v.02Zm3.49-.95c0 .17-.07.34-.2.46l-.75.71s-.07.05-.12.05-.09-.02-.12-.05l-.75-.71a.613.613 0 0 1-.2-.46v-.03c0-.14.05-.28.14-.38.09-.11.22-.18.35-.2.09-.01.19 0 .28.02.09.03.18.08.24.15l.05.05.05-.05c.07-.07.15-.12.24-.15s.19-.03.28-.02a.592.592 0 0 1 .49.58v.03Zm3.45-1.24c0 .17-.07.34-.2.46l-.75.71s-.07.05-.12.05-.09-.02-.12-.05l-.75-.71a.613.613 0 0 1-.2-.46v-.02c0-.14.05-.28.14-.38.09-.11.22-.18.35-.2.09-.01.19 0 .28.02.09.03.18.08.24.15l.05.05.05-.05c.07-.07.15-.12.24-.15s.19-.03.28-.02a.592.592 0 0 1 .49.58v.02Zm3.4-1.37c0 .17-.07.34-.2.46l-.75.71s-.07.05-.12.05-.09-.02-.12-.05l-.75-.71a.613.613 0 0 1-.2-.46v-.03c0-.14.05-.28.14-.38.09-.11.22-.18.35-.2.09-.01.19 0 .28.02.09.03.18.08.24.15l.05.05.05-.05c.07-.07.15-.12.24-.15s.19-.03.28-.02a.592.592 0 0 1 .49.58v.03Zm3.37-1.67c0 .17-.07.34-.2.46l-.75.71s-.07.05-.12.05-.09-.02-.12-.05l-.75-.71a.613.613 0 0 1-.2-.46v-.02c0-.14.05-.28.14-.38.09-.11.22-.18.35-.2.09-.01.19 0 .28.02.09.03.18.08.24.15l.05.05.05-.05c.07-.07.15-.12.24-.15s.19-.03.28-.02a.592.592 0 0 1 .49.58v.02Zm3.12-1.84c0 .17-.07.34-.2.46l-.75.71s-.07.05-.12.05-.09-.02-.12-.05l-.75-.71a.613.613 0 0 1-.2-.46v-.02c0-.14.05-.28.14-.38.09-.11.22-.18.35-.2.09-.01.19 0 .28.02.09.03.18.08.24.15l.05.05.05-.05c.07-.07.15-.12.24-.15s.19-.03.28-.02a.592.592 0 0 1 .49.58v.02Zm2.93-1.91c0 .17-.07.34-.2.46l-.75.71s-.07.05-.12.05-.09-.02-.12-.05l-.75-.71a.613.613 0 0 1-.2-.46v-.03c0-.14.05-.28.14-.38.09-.11.22-.18.35-.2.09-.01.19 0 .28.02.09.03.18.08.24.15l.05.05.05-.05c.07-.07.15-.12.24-.15s.19-.03.28-.02a.592.592 0 0 1 .49.58v.03Z"/></svg>
