<svg xmlns="http://www.w3.org/2000/svg" width="169.606" height="138.822" viewBox="0 0 169.606 138.822">
  <g id="Gruppe_108" data-name="Gruppe 108" transform="matrix(-0.966, -0.259, 0.259, -0.966, 133.798, 155.185)" opacity="0.5">
    <path id="Pfad_78" data-name="Pfad 78" d="M68.924,259.8A28.534,28.534,0,1,1,25.545,223.02a28.973,28.973,0,0,1,3.572-3.038,94.01,94.01,0,0,1-7.085-13.32c-.066-.156-.128-.311-.193-.466A44.452,44.452,0,1,0,82.7,267.085c-.152-.064-.3-.124-.457-.189A93.983,93.983,0,0,1,68.924,259.8Z" transform="translate(0 -150.419)" fill="#9fd18d"/>
    <path id="Pfad_79" data-name="Pfad 79" d="M176.257,128.838A28.955,28.955,0,0,0,159.086,137l-.179.18a11.64,11.64,0,0,1-8.288,3.439h0a11.632,11.632,0,0,1-8.282-3.432L127.27,122.118a11.724,11.724,0,0,1,0-16.558l.842-.842a28.147,28.147,0,0,0,7.843-16.179A73.764,73.764,0,0,0,119.4,80.924c-11.923-3.542-18.175-.536-21.32,2.61-5.455,5.456-5.583,15.226-.362,27.509,4.586,10.788,13.025,22.787,23.156,32.92s22.125,18.576,32.91,23.163c6,2.552,11.4,3.826,15.988,3.826,4.806,0,8.725-1.4,11.515-4.189,3.15-3.151,6.158-9.419,2.592-21.379A73.942,73.942,0,0,0,176.257,128.838Z" transform="translate(-68.462 -57.867)" fill="#9fd18d"/>
    <path id="Pfad_80" data-name="Pfad 80" d="M299.355,8.885a31.535,31.535,0,0,0-53.436,20.386A36.215,36.215,0,0,1,235.59,52.4l-.842.842a3.865,3.865,0,0,0,0,5.466l15.065,15.07a3.865,3.865,0,0,0,5.468,0l.186-.187a36.95,36.95,0,0,1,23.9-10.6,31.547,31.547,0,0,0,19.99-54.1Z" transform="translate(-170.393 0)" fill="#9fd18d"/>
  </g>
</svg>
