<?xml version="1.0" encoding="UTF-8"?>
<svg xmlns="http://www.w3.org/2000/svg" viewBox="0 0 45.69 63.85">
  <path fill="#d0e5c9" d="M11.91,19.78c-1-6.04,3.07-11.74,9.11-12.75,6.04-1,11.74,3.07,12.75,9.11.1.6.15,1.21.15,1.82,0,.61-.05,1.21-.15,1.81,1.91.42,3.78.99,5.6,1.71.06.02.12.05.18.07,2.38-9.23-3.17-18.64-12.4-21.02C17.92-1.83,8.51,3.72,6.13,12.95c-.73,2.82-.73,5.79,0,8.61l.18-.07c1.82-.72,3.69-1.29,5.6-1.71h0Z"/>
  <path fill="#d0e5c9" d="M11.79,41c1.58-1.97,2.45-4.42,2.47-6.95v-.1c0-1.21.47-2.37,1.33-3.22h0c.85-.86,2.01-1.33,3.22-1.33h8.27c2.51,0,4.54,2.04,4.55,4.55v.46c.02,2.39.83,4.71,2.29,6.6,2.31-.54,4.53-1.37,6.64-2.46,4.25-2.3,5.14-4.84,5.14-6.57,0-3-2.65-5.71-7.45-7.65-9.95-3.57-20.83-3.57-30.79,0-2.02.74-3.86,1.88-5.44,3.34C.78,28.76.06,30.31,0,31.96,0,33.69.9,36.24,5.16,38.54c2.1,1.09,4.33,1.91,6.63,2.45Z"/>
  <path fill="#d0e5c9" d="M23.02,63.85c6.78-.12,12.18-5.71,12.07-12.49,0-.01,0-.02,0-.03-.07-2.85-1.12-5.59-2.99-7.74-2.24-2.54-3.49-5.8-3.51-9.18v-.46c0-.83-.67-1.5-1.5-1.5,0,0,0,0,0,0h-8.27c-.83,0-1.5.67-1.5,1.5,0,0,0,0,0,0v.1c-.02,3.5-1.32,6.86-3.65,9.47-4.47,5.08-3.98,12.82,1.1,17.28,2.28,2.01,5.22,3.09,8.26,3.05h0Z"/>
</svg>
