<svg xmlns="http://www.w3.org/2000/svg" width="103.778" height="153.044" viewBox="0 0 103.778 153.044">
  <g id="Gruppe_87" data-name="Gruppe 87" transform="translate(-24.021 -32.008)" opacity="0.5">
    <path id="Pfad_54" data-name="Pfad 54" d="M102.172,127.058c11.517,0,21.27-3.6,28.2-10.423a34.765,34.765,0,0,0,10.058-25.106,34.765,34.765,0,0,0-10.058-25.106C123.442,59.6,113.689,56,102.172,56s-21.27,3.6-28.2,10.422A34.765,34.765,0,0,0,63.91,91.529a34.765,34.765,0,0,0,10.058,25.107c6.934,6.818,16.687,10.422,28.2,10.422Zm16.4-43.728a2.733,2.733,0,1,1-2.733,2.733A2.733,2.733,0,0,1,118.57,83.33Zm-32.8,0a2.733,2.733,0,1,1-2.733,2.733A2.733,2.733,0,0,1,85.774,83.33ZM83.041,98.361a2.733,2.733,0,0,1,2.733,2.733c0,6.083,5.92,11.145,13.665,12.124v-8.674a6.164,6.164,0,0,1-.83-.5l-4.64-3.311a6.618,6.618,0,0,1-2.731-5.4A6.43,6.43,0,0,1,97.532,88.8h9.277A6.43,6.43,0,0,1,113.1,95.34a6.618,6.618,0,0,1-2.731,5.4l-4.638,3.31a6.182,6.182,0,0,1-.829.5v8.675c7.745-.979,13.665-6.041,13.665-12.124a2.733,2.733,0,1,1,5.466,0c0,9.8-9.808,17.764-21.864,17.764s-21.864-7.969-21.864-17.764a2.733,2.733,0,0,1,2.733-2.733Z" transform="translate(-26.262 -15.796)" fill="#9fd18d"/>
    <path id="Pfad_55" data-name="Pfad 55" d="M165.762,173.334l4.638-3.31a1.164,1.164,0,0,0,.44-.947.991.991,0,0,0-.827-1.078h-9.277a.992.992,0,0,0-.827,1.078,1.164,1.164,0,0,0,.44.947l4.638,3.31a.635.635,0,0,0,.775,0Z" transform="translate(-89.465 -89.534)" fill="#9fd18d"/>
    <path id="Pfad_56" data-name="Pfad 56" d="M233.487,256.254c6.122,7.181,9.869,17.438,10.367,28.554a21.127,21.127,0,0,1,13.381,7.734,10.954,10.954,0,0,0,8.472-9.75l-.246-3.5c-1.472-13.43-8.848-23.639-21.367-29.636A39.945,39.945,0,0,1,233.487,256.254Z" transform="translate(-137.908 -143.292)" fill="#9fd18d"/>
    <path id="Pfad_57" data-name="Pfad 57" d="M255.786,57.472a13.665,13.665,0,1,0-18.837-18.444,39.535,39.535,0,0,1,11.184,7.7A38.149,38.149,0,0,1,255.786,57.472Z" transform="translate(-140.187 -0.001)" fill="#9fd18d"/>
    <path id="Pfad_58" data-name="Pfad 58" d="M65.523,39.027A13.665,13.665,0,1,0,46.686,57.471,38.141,38.141,0,0,1,54.34,46.729,39.521,39.521,0,0,1,65.523,39.027Z" transform="translate(-10.466 0)" fill="#9fd18d"/>
    <ellipse id="Ellipse_11" data-name="Ellipse 11" cx="16.398" cy="19.131" rx="16.398" ry="19.131" transform="translate(86.872 146.791)" fill="#9fd18d"/>
    <path id="Pfad_59" data-name="Pfad 59" d="M153.254,301.314c-.522-10.711-4.352-20.416-10.52-26.617a55.354,55.354,0,0,1-28.043.013c-6.149,6.2-9.978,15.946-10.5,26.6,10.739,1.551,19.067,11.893,19.067,24.388a26.9,26.9,0,0,1-2.624,11.673,17.426,17.426,0,0,0,16.179,0,26.9,26.9,0,0,1-2.624-11.673c0-12.5,8.328-22.839,19.068-24.389Z" transform="translate(-52.78 -159.781)" fill="#9fd18d"/>
    <ellipse id="Ellipse_12" data-name="Ellipse 12" cx="16.398" cy="19.131" rx="16.398" ry="19.131" transform="translate(32.213 146.791)" fill="#9fd18d"/>
    <path id="Pfad_60" data-name="Pfad 60" d="M45.935,284.807c.5-11.062,4.251-21.349,10.355-28.532a39.967,39.967,0,0,1-10.657-6.623c-12.519,6-19.895,16.206-21.367,29.635l-.245,3.5a10.953,10.953,0,0,0,8.523,9.761A21.137,21.137,0,0,1,45.935,284.807Z" transform="translate(0 -143.292)" fill="#9fd18d"/>
  </g>
</svg>
