<?xml version="1.0" encoding="UTF-8"?>
<svg  xmlns="http://www.w3.org/2000/svg" viewBox="0 0 41.96 61.87">
  <path fill="#d0e5c9" d="M20.98,32.04c4.21.17,8.31-1.35,11.4-4.21,5.42-5.68,5.42-14.62,0-20.3-3.09-2.87-7.19-4.38-11.4-4.21-4.21-.17-8.31,1.35-11.4,4.21-5.42,5.68-5.42,14.62,0,20.3,3.09,2.87,7.19,4.38,11.4,4.21h0ZM27.61,14.37c.61,0,1.1.49,1.1,1.1,0,.61-.49,1.1-1.1,1.1-.61,0-1.1-.49-1.1-1.1h0c0-.61.49-1.1,1.1-1.1h0,0ZM14.35,14.37c.61,0,1.1.49,1.1,1.1,0,.61-.49,1.1-1.1,1.1-.61,0-1.1-.49-1.1-1.1h0c0-.61.49-1.1,1.1-1.1h0,0ZM13.25,20.44c.61,0,1.1.49,1.1,1.1,0,2.46,2.39,4.51,5.52,4.9v-3.5c-.12-.06-.23-.12-.33-.2l-1.88-1.34c-.7-.51-1.11-1.32-1.1-2.18-.03-1.43,1.11-2.61,2.54-2.65h3.75c1.43.03,2.57,1.21,2.55,2.64,0,.86-.4,1.67-1.1,2.18l-1.88,1.34c-.11.08-.22.14-.33.2v3.51c3.13-.4,5.52-2.44,5.52-4.9,0-.61.49-1.11,1.1-1.11s1.11.49,1.11,1.11c0,3.96-3.96,7.18-8.84,7.18s-8.84-3.22-8.84-7.18c0-.61.49-1.1,1.1-1.1h0Z"/>
  <path fill="#d0e5c9" d="M28.93,32.73c2.62,3.29,4.09,7.34,4.19,11.54,2.13.32,4.07,1.44,5.41,3.13,1.88-.43,3.26-2.02,3.43-3.94l-.1-1.42c-.48-5.27-3.79-9.86-8.64-11.98-1.28,1.11-2.73,2.01-4.29,2.67Z"/>
  <path fill="#d0e5c9" d="M37.02,10.29c2.63-1.54,3.52-4.93,1.98-7.56s-4.93-3.52-7.56-1.98c-.85.5-1.55,1.22-2.03,2.08,1.68.77,3.2,1.82,4.52,3.11,1.28,1.26,2.32,2.73,3.1,4.34Z"/>
  <path fill="#d0e5c9" d="M12.55,2.84C11.06.17,7.7-.79,5.03.7c-2.67,1.48-3.63,4.85-2.14,7.51.48.87,1.19,1.58,2.04,2.08.77-1.62,1.82-3.09,3.09-4.34,1.32-1.29,2.85-2.34,4.52-3.11Z"/>
  <ellipse fill="#d0e5c9" cx="32.04" cy="54.14" rx="6.63" ry="7.73"/>
  <path fill="#d0e5c9" d="M30.91,44.28c-.07-3.98-1.58-7.81-4.25-10.76-3.72.97-7.62.98-11.34,0-2.66,2.96-4.17,6.78-4.25,10.76,4.34.63,7.71,4.81,7.71,9.86,0,1.63-.36,3.25-1.06,4.72,2.05,1.07,4.49,1.07,6.54,0-.7-1.47-1.07-3.09-1.06-4.72,0-5.05,3.37-9.23,7.71-9.86h0Z"/>
  <ellipse fill="#d0e5c9" cx="9.94" cy="54.14" rx="6.63" ry="7.73"/>
  <path fill="#d0e5c9" d="M8.86,44.27c.1-4.2,1.57-8.25,4.19-11.54-1.57-.66-3.02-1.56-4.31-2.68C3.89,32.18.58,36.77.1,42.04l-.1,1.42c.16,1.93,1.56,3.53,3.45,3.95,1.34-1.69,3.28-2.81,5.41-3.14Z"/>
</svg>
