<?xml version="1.0" encoding="UTF-8"?>
<svg xmlns="http://www.w3.org/2000/svg" viewBox="0 0 55.78 64.11">
  <path fill="#d0e5c9" d="M55.73,23.08c-.05-.14-.13-.27-.23-.38l-.08-.07.08-.08c.1-.11.18-.24.22-.38.04-.14.05-.29.03-.44-.04-.22-.16-.41-.33-.55-.17-.14-.38-.22-.6-.21h-.04c-.18,0-.36.06-.51.16-.21-2.67-.89-5.29-2-7.72.18.01.36-.03.52-.11l.03-.02c.19-.1.34-.27.42-.48.08-.2.09-.43.02-.64-.05-.14-.13-.27-.24-.37-.11-.1-.24-.18-.38-.22l-.1-.03.03-.11c.04-.14.05-.29.02-.44-.03-.15-.09-.28-.18-.4-.14-.17-.33-.29-.54-.34-.21-.05-.44-.02-.63.09l-.03.02c-.16.09-.29.22-.38.37-1.96-3.1-4.62-5.7-7.78-7.56.15-.09.28-.23.36-.39l.02-.04c.1-.2.13-.42.07-.63-.05-.21-.17-.4-.35-.53-.12-.09-.26-.14-.41-.17-.15-.02-.3-.01-.44.03l-.1.04-.03-.1c-.05-.14-.13-.27-.24-.37-.11-.1-.23-.18-.38-.23-.21-.06-.44-.05-.64.04-.2.08-.37.24-.47.44l-.02.03c-.08.16-.11.34-.1.52C37.5.62,34.45,0,31.38,0,30.63,0,29.9.04,29.17.11v23.67L40.44,2.24l.49,1.35c.05.13.19.2.33.16l1.32-.39-13.41,20.42,21.5-12.61-.36,1.37c-.04.14.04.28.17.32l1.44.48-22.75,10.44,24.7-2.25-.88.96c-.1.1-.1.26,0,.36l.89.92H6.44c-.03,13.28,10.71,24.06,23.99,24.09,13.13.03,23.85-10.48,24.08-23.6.1.03.2.05.31.05h.04c.22,0,.43-.08.6-.23.17-.14.28-.34.31-.56.02-.15,0-.3-.04-.44M12.12,26.35c0,.21-.09.41-.24.55l-.9.85c-.08.07-.2.07-.28,0l-.9-.85c-.15-.14-.24-.34-.24-.55v-.03c0-.17.06-.33.17-.46.11-.13.26-.22.43-.25.11-.02.23,0,.34.02.11.03.21.09.29.18l.06.06.06-.06c.08-.08.18-.14.29-.18.11-.03.23-.04.34-.02.17.03.32.12.43.25.11.13.17.29.17.46v.03ZM31.38,26.32c0-.17.06-.33.17-.46.11-.13.26-.22.43-.25.11-.02.23,0,.34.02.11.03.21.09.29.18l.06.06.06-.06c.08-.08.18-.14.29-.18.11-.03.23-.04.34-.02.17.03.32.12.43.25.11.13.17.29.17.46v.03c0,.21-.09.41-.24.55l-.9.85c-.08.07-.2.07-.28,0l-.9-.85c-.15-.14-.24-.34-.24-.55v-.03ZM27.01,26.32c0-.17.06-.33.17-.46.11-.13.26-.22.43-.25.11-.02.23,0,.34.02.11.03.21.09.29.18l.06.06.06-.06c.08-.08.18-.14.29-.18.11-.03.23-.04.34-.02.17.03.32.12.43.25.11.13.17.29.17.46v.03c0,.21-.09.41-.24.55l-.9.85c-.08.07-.2.07-.28,0l-.9-.85c-.15-.14-.24-.34-.24-.55v-.03ZM16.48,26.35c0,.21-.09.41-.24.55l-.9.85c-.08.07-.2.07-.28,0l-.9-.85c-.15-.14-.24-.34-.24-.55v-.03c0-.17.06-.33.17-.46.11-.13.26-.22.43-.25.11-.02.23,0,.34.02.11.03.21.09.29.18l.06.06.06-.06c.08-.08.18-.14.29-.18.11-.03.23-.04.34-.02.17.03.32.12.43.25.11.13.17.29.17.46v.03ZM20.85,26.35c0,.21-.09.41-.24.55l-.9.85c-.08.07-.2.07-.28,0l-.9-.85c-.15-.14-.24-.34-.24-.55v-.03c0-.17.06-.33.17-.46.11-.13.26-.22.43-.25.11-.02.23,0,.34.02.11.03.21.09.29.18l.06.06.06-.06c.08-.08.18-.14.29-.18.11-.03.23-.04.34-.02.17.03.32.12.43.25.11.13.17.29.17.46v.03ZM23.93,27.8c-.05,0-.1-.02-.14-.06l-.9-.85c-.15-.14-.24-.34-.24-.55v-.03c0-.17.06-.33.17-.46.11-.13.26-.22.43-.25.11-.02.23,0,.34.02.11.03.21.09.29.18l.06.06.06-.06c.08-.08.18-.14.29-.18.11-.03.23-.04.34-.02.17.03.32.12.43.25.11.13.17.29.17.46v.03c0,.21-.09.41-.24.55l-.9.85s-.09.06-.14.06M36.89,36.02c0,1.04-.43,2.03-1.2,2.73l-4.5,4.23c-.39.37-1.01.37-1.4,0l-4.5-4.23c-.77-.7-1.2-1.69-1.2-2.73v-.15c0-.84.3-1.66.85-2.3.54-.65,1.3-1.08,2.13-1.23.56-.08,1.13-.04,1.68.12.55.17,1.05.47,1.45.88l.3.3.28-.3c.41-.4.91-.7,1.45-.88.55-.17,1.13-.21,1.7-.12.83.15,1.58.58,2.13,1.23.55.64.85,1.46.85,2.3v.15ZM38.32,26.35c0,.21-.09.41-.24.55l-.9.85c-.08.07-.2.07-.28,0l-.9-.85c-.15-.14-.24-.34-.24-.55v-.03c0-.17.06-.33.17-.46.11-.13.26-.22.43-.25.11-.02.23,0,.34.02.11.03.21.09.29.18l.06.06.06-.06c.08-.08.18-.14.29-.18.11-.03.23-.04.34-.02.17.03.32.12.43.25.11.13.17.29.17.46v.03ZM42.69,26.35c0,.21-.09.41-.24.55l-.9.85c-.08.07-.2.07-.28,0l-.9-.85c-.15-.14-.24-.34-.24-.55v-.03c0-.17.06-.33.17-.46.11-.13.26-.22.43-.25.11-.02.23,0,.34.02.11.03.21.09.29.18l.06.06.06-.06c.08-.08.18-.14.29-.18.11-.03.23-.04.34-.02.17.03.32.12.43.25.11.13.17.29.17.46v.03ZM47.05,26.35c0,.21-.09.41-.24.55l-.9.85c-.08.07-.2.07-.28,0l-.9-.85c-.15-.14-.24-.34-.24-.55v-.03c0-.17.06-.33.17-.46.11-.13.26-.22.43-.25.11-.02.23,0,.34.02.11.03.21.09.29.18l.06.06.06-.06c.08-.08.18-.14.29-.18.11-.03.23-.04.34-.02.17.03.32.12.43.25.11.13.17.29.17.46v.03ZM51.42,26.35c0,.21-.09.41-.24.55l-.9.85c-.08.07-.2.07-.28,0l-.9-.85c-.15-.14-.24-.34-.24-.55v-.03c0-.17.06-.33.17-.46.11-.13.26-.22.43-.25.11-.02.23,0,.34.02.11.03.21.09.29.18l.06.06.06-.06c.08-.08.18-.14.29-.18.11-.03.23-.04.34-.02.17.03.32.12.43.25.11.13.17.29.17.46v.03Z"/>
  <path fill="#d0e5c9" d="M21.46,52.16c-3.3,0-5.97,2.67-5.97,5.97s2.67,5.97,5.97,5.97,5.97-2.67,5.97-5.97-2.67-5.97-5.97-5.97h0M23.55,59.79c0,.24-.2.43-.44.44l-2.72.09c-.46.02-.9-.15-1.22-.48l-.05-.05c-.26-.26-.42-.61-.45-.98-.03-.37.07-.74.28-1.04.15-.2.34-.36.56-.48.22-.12.47-.18.72-.18h.19v-.18c0-.25.06-.5.17-.72.12-.22.29-.42.49-.57.3-.21.67-.31,1.04-.28.37.03.72.19.98.45l.05.05c.32.32.5.77.47,1.22l-.09,2.71Z"/>
  <path fill="#d0e5c9" d="M39.43,52.16c-3.3,0-5.97,2.67-5.97,5.97s2.67,5.97,5.97,5.97,5.97-2.67,5.97-5.97-2.67-5.97-5.97-5.97h0M41.76,59.79l-.05.05c-.32.32-.77.5-1.22.48l-2.71-.09c-.24,0-.43-.2-.44-.44l-.09-2.71c-.02-.46.15-.9.47-1.22l.05-.05c.26-.26.61-.42.98-.45.37-.03.74.07,1.04.28.2.15.37.34.48.56.12.22.18.47.18.72v.19h.18c.25,0,.5.06.72.17.22.12.42.29.57.49.21.3.31.67.28,1.04-.03.37-.19.72-.45.98"/>
  <path fill="#d0e5c9" d="M38.45,48.11c-1.91.55-3.88.88-5.87.97l-1.89,1.33-1.89-1.33c-1.99-.09-3.96-.41-5.87-.97l5.51,3.88-2.11,1.48c.6.63,1.08,1.37,1.4,2.18l2.96-2.08,2.58,1.82c.36-.79.86-1.51,1.49-2.12l-1.82-1.28,5.51-3.88Z"/>
  <path fill="#d0e5c9" d="M5.1,17.91c-.22-1.4-1.53-2.35-2.93-2.13S-.19,17.31.03,18.71s1.53,2.35,2.93,2.13c.53-.08,1.03-.33,1.41-.72,1.33.42,2.19,1.71,2.07,3.1h2.33c.11-2.4-1.39-4.58-3.67-5.32M3.5,19.06c0,.11-.09.2-.2.2l-1.24.04c-.21,0-.41-.07-.56-.22l-.02-.02c-.12-.12-.19-.28-.21-.45-.01-.17.03-.34.13-.47.07-.09.15-.17.25-.22.1-.05.21-.08.33-.08h.09v-.08c0-.11.03-.23.08-.33.05-.1.13-.19.22-.26.14-.1.31-.14.48-.13.17.01.33.09.45.21l.02.02c.15.15.23.35.22.56l-.04,1.24Z"/>
</svg>
