<svg xmlns="http://www.w3.org/2000/svg" width="54" height="54"><path d="M27 0A27 27 0 1 1 0 27 27 27 0 0 1 27 0Z" fill="#9fd18d"/><g fill="#fff"><path d="M17.002 39.151c0 2.987 1.532 5.1 4.03 5.51a9.033 9.033 0 0 0 7.869-2.348 23.881 23.881 0 0 0 6.639-11.41 10 10 0 0 0 .245-5.644c-1.315-4.489-4.354-7.673-9.489-7.911-4.248-.2-7.222 2.239-6.119 7.136a11.286 11.286 0 0 0 1.515 3.264c1.4 2.292 1.1 4.235-1.04 5.848-.37.279-.757.535-1.141.794a5.307 5.307 0 0 0-2.509 4.761Zm3.679-25.638a3.466 3.466 0 0 0 3.431 3.611 3.562 3.562 0 0 0 .026-7.123 3.519 3.519 0 0 0-3.457 3.512Zm11.571 2.086c-.052-1.722-.5-2.566-1.455-2.834a2.018 2.018 0 0 0-2.314.944 2.333 2.333 0 0 0 .3 2.871 2.618 2.618 0 0 0 1.522.648 4.357 4.357 0 0 0 1.52-.6c.055 1.391.552 2.239 1.475 2.4a1.742 1.742 0 0 0 1.87-.974 2.148 2.148 0 0 0-.362-2.479c-.721-.695-1.337-.698-2.557.023Zm5.376 4.612a1.651 1.651 0 0 0-1.5-1.707 1.68 1.68 0 0 0-1.563 1.736 1.529 1.529 0 0 0 1.529 1.625 1.612 1.612 0 0 0 1.534-1.659Zm1 3.474a1.415 1.415 0 0 0-1.324-1.348 1.388 1.388 0 0 0-1.235 1.515 1.468 1.468 0 0 0 1.218 1.277 1.428 1.428 0 0 0 1.337-1.444Z"/><path d="M17.002 39.151a5.307 5.307 0 0 1 2.509-4.76c.384-.259.771-.516 1.141-.794 2.142-1.614 2.442-3.557 1.04-5.848a11.288 11.288 0 0 1-1.515-3.264c-1.1-4.9 1.871-7.332 6.119-7.136 5.135.238 8.174 3.422 9.489 7.911a10 10 0 0 1-.245 5.644 23.881 23.881 0 0 1-6.639 11.41 9.032 9.032 0 0 1-7.869 2.348c-2.498-.407-4.026-2.525-4.03-5.511Z"/><path d="M20.681 13.513a3.519 3.519 0 0 1 3.457-3.512 3.562 3.562 0 0 1-.026 7.123 3.466 3.466 0 0 1-3.431-3.611Z"/><path d="M32.252 15.598c1.22-.721 1.833-.719 2.555-.025a2.148 2.148 0 0 1 .362 2.479 1.742 1.742 0 0 1-1.87.974c-.923-.161-1.42-1.009-1.475-2.4a4.357 4.357 0 0 1-1.52.6 2.619 2.619 0 0 1-1.522-.648 2.333 2.333 0 0 1-.3-2.871 2.018 2.018 0 0 1 2.314-.944c.959.269 1.404 1.114 1.456 2.835Z"/><path d="M37.628 20.211a1.612 1.612 0 0 1-1.529 1.654 1.529 1.529 0 0 1-1.529-1.625 1.68 1.68 0 0 1 1.563-1.736 1.651 1.651 0 0 1 1.495 1.707Z"/><path d="M38.624 23.689a1.428 1.428 0 0 1-1.334 1.443 1.468 1.468 0 0 1-1.225-1.276 1.387 1.387 0 0 1 1.235-1.515 1.415 1.415 0 0 1 1.324 1.348Z"/></g></svg>
